<svg width="12" height="13" viewBox="0 0 12 13" fill="none" xmlns="http://www.w3.org/2000/svg">
<path d="M11.9305 0.464286V1.39286C11.9305 1.51599 11.8848 1.63409 11.8035 1.72116C11.7222 1.80823 11.612 1.85714 11.497 1.85714H10.1967V12.5357C10.1967 12.6588 10.151 12.7769 10.0697 12.864C9.98844 12.9511 9.87819 13 9.76323 13H8.89634C8.78138 13 8.67113 12.9511 8.58985 12.864C8.50856 12.7769 8.4629 12.6588 8.4629 12.5357V1.85714H7.59601V12.5357C7.59601 12.6588 7.55034 12.7769 7.46905 12.864C7.38777 12.9511 7.27752 13 7.16256 13H6.29567C6.18071 13 6.07047 12.9511 5.98918 12.864C5.90789 12.7769 5.86223 12.6588 5.86223 12.5357V9.28571H4.99534C3.84577 9.28571 2.74329 8.79656 1.93042 7.92585C1.11755 7.05515 0.660889 5.87422 0.660889 4.64286C0.660889 3.41149 1.11755 2.23057 1.93042 1.35986C2.74329 0.489157 3.84577 0 4.99534 0H11.497C11.612 0 11.7222 0.0489157 11.8035 0.135986C11.8848 0.223057 11.9305 0.341149 11.9305 0.464286Z" fill="#1F2041"/>
</svg>
